<?xml version="1.0" standalone="no"?>
<!DOCTYPE svg PUBLIC "-//W3C//DTD SVG 20010904//EN"
 "http://www.w3.org/TR/2001/REC-SVG-20010904/DTD/svg10.dtd">
<svg version="1.0" xmlns="http://www.w3.org/2000/svg"
 width="964.000000pt" height="964.000000pt" viewBox="0 0 964.000000 964.000000"
 preserveAspectRatio="xMidYMid meet">
<metadata>
Created by potrace 1.11, written by Peter Selinger 2001-2013
</metadata>
<g transform="translate(0.000000,964.000000) scale(0.100000,-0.100000)"
fill="#000000" stroke="none">
<path d="M7610 8680 c-47 -5 -114 -14 -150 -21 -74 -13 -332 -88 -410 -119
-28 -11 -149 -50 -267 -86 -229 -69 -335 -112 -411 -167 -26 -19 -74 -48 -108
-65 -82 -41 -173 -141 -224 -246 -49 -100 -59 -169 -36 -249 19 -65 53 -97
102 -97 77 0 243 77 466 217 164 102 327 183 503 249 481 180 517 190 655 174
144 -16 294 -62 476 -143 156 -70 544 -266 689 -347 282 -158 362 -187 426
-154 46 23 52 33 98 149 77 195 101 355 65 431 -36 76 -140 141 -309 192 -490
149 -843 234 -1106 267 -156 19 -355 26 -459 15z"/>
<path d="M1855 8573 c-73 -6 -288 -54 -425 -95 -174 -51 -408 -139 -590 -221
-80 -35 -190 -84 -245 -107 -282 -120 -390 -195 -414 -287 -5 -21 -15 -148
-22 -283 -11 -243 -8 -310 20 -382 13 -35 66 -68 109 -68 56 0 109 36 250 174
132 128 151 142 538 398 220 146 436 286 480 311 163 94 377 167 490 167 52 0
273 -41 399 -74 33 -9 120 -30 192 -46 153 -35 305 -88 477 -165 186 -83 301
-124 393 -140 74 -13 89 -13 119 0 76 31 87 174 23 296 -47 89 -177 219 -244
244 -28 10 -97 40 -155 65 -120 54 -182 71 -370 101 -74 11 -216 36 -315 55
-272 52 -376 64 -530 62 -77 -1 -158 -3 -180 -5z"/>
<path d="M2155 7090 c-71 -5 -222 -18 -335 -30 -301 -30 -345 -46 -875 -318
-33 -17 -101 -45 -150 -62 -109 -37 -180 -87 -212 -150 -15 -30 -33 -103 -52
-220 -48 -285 -56 -392 -55 -695 1 -396 20 -536 121 -885 149 -516 235 -700
411 -882 250 -259 690 -396 1195 -374 342 16 458 55 725 245 300 213 518 429
705 697 243 348 463 850 527 1207 11 62 25 171 31 242 5 72 16 186 25 255 13
109 13 134 1 193 l-14 68 66 33 c88 44 240 101 354 131 165 45 262 57 437 57
194 0 313 -20 479 -82 102 -39 231 -105 231 -118 0 -4 -7 -29 -15 -56 -17 -56
-19 -183 -5 -271 6 -33 14 -130 20 -215 10 -166 34 -310 76 -455 123 -431 365
-899 629 -1214 194 -232 561 -534 780 -643 134 -67 325 -98 602 -98 403 0 732
91 973 270 192 143 319 346 435 694 179 539 217 747 219 1201 1 263 -11 409
-54 673 -22 134 -35 183 -55 217 -38 66 -114 114 -248 155 -32 10 -137 62
-232 115 -292 161 -466 226 -675 250 -438 50 -654 60 -985 46 -393 -16 -597
-45 -800 -113 -125 -42 -277 -118 -364 -183 -40 -30 -77 -55 -82 -55 -5 0 -48
22 -97 50 -390 221 -885 270 -1375 135 -145 -39 -315 -104 -435 -164 l-82 -41
-64 54 c-81 68 -181 127 -311 181 -188 79 -404 124 -687 144 -204 15 -636 21
-783 11z m1189 -490 c92 -13 317 -120 365 -175 36 -41 36 -46 -4 -225 -19 -85
-25 -144 -29 -315 -5 -245 -36 -501 -73 -619 -35 -114 -119 -270 -230 -427
-52 -74 -158 -226 -236 -338 -162 -234 -261 -345 -379 -424 -184 -123 -363
-168 -667 -168 -168 0 -260 11 -386 47 -183 52 -323 142 -403 260 -79 115
-201 434 -271 705 -48 186 -81 458 -81 669 0 173 34 427 80 598 l21 78 57 28
c31 15 86 45 122 66 115 69 260 104 630 155 332 45 611 76 805 90 201 15 552
12 679 -5z m4116 -30 c371 -39 872 -112 1032 -149 110 -26 186 -57 264 -108
34 -21 82 -47 107 -57 51 -19 48 -12 86 -176 72 -305 72 -726 0 -1073 -63
-308 -223 -720 -334 -860 -86 -108 -248 -193 -458 -239 -87 -19 -131 -23 -302
-22 -176 0 -215 3 -323 26 -237 50 -424 169 -574 364 -26 34 -102 142 -169
240 -344 503 -377 558 -428 710 -47 140 -81 437 -81 711 0 124 -5 172 -25 267
-34 157 -33 177 10 219 34 33 203 122 279 147 70 23 179 29 451 25 182 -2 334
-10 465 -25z"/>
<path d="M4882 6070 c-45 -28 -58 -59 -218 -541 -128 -389 -190 -565 -314
-904 -28 -77 -99 -277 -157 -445 -123 -357 -205 -594 -337 -965 -80 -227 -323
-954 -387 -1161 -35 -111 -20 -172 51 -209 61 -32 108 -20 305 71 86 40 704
111 1070 124 154 5 330 12 390 15 61 3 189 0 285 -7 96 -7 234 -13 305 -13
l130 0 77 38 c95 46 128 87 128 160 0 58 -16 90 -67 138 -66 64 -130 85 -357
121 -105 16 -196 21 -452 25 -449 7 -675 -9 -1116 -78 -81 -13 -150 -21 -153
-18 -3 3 13 48 36 100 88 205 325 787 421 1034 109 281 227 638 296 895 35
129 200 832 252 1069 90 416 93 455 42 504 -66 63 -169 84 -230 47z"/>
</g>
</svg>
